<?xml version="1.0" encoding="UTF-8"?><svg id="Layer_1" xmlns="http://www.w3.org/2000/svg" viewBox="0 0 226.49 251.34"><defs><style>.cls-1{fill:#fff;}</style></defs><g><path class="cls-1" d="M55.21,28.61c-3.5-1.87-7.08-3.8-9.74-6.75s-4.25-7.18-3.04-10.97c1.03-3.2,3.89-5.55,7.03-6.76s6.56-1.43,9.92-1.57c1.92-.08,3.96-.11,5.61,.87,1.2,.72,2.05,1.89,2.76,3.1,2.1,3.58,3.24,7.73,3.25,11.88"/><path d="M56.47,26.46c-3.4-1.82-6.98-3.66-9.5-6.66-2.02-2.4-3.3-6.02-1.81-9,1.59-3.18,5.19-4.6,8.49-5.22,2.02-.38,4.1-.46,6.15-.53,1.64-.05,3.37-.12,4.61,1.1,1.43,1.41,2.33,3.63,2.95,5.5,.74,2.2,1.11,4.45,1.15,6.77,.05,3.21,5.05,3.22,5,0-.07-5.1-1.51-10.56-4.63-14.68-1.62-2.13-3.73-3.3-6.39-3.61-2.51-.29-5.19-.03-7.7,.27-4.94,.58-9.83,2.23-12.94,6.34s-2.85,9.14-.6,13.44c2.66,5.07,7.83,8,12.7,10.6,2.84,1.52,5.37-2.8,2.52-4.32h0Z"/></g><g><path class="cls-1" d="M175.75,20.96c.02-4.76,4.12-8.64,8.56-10.36,4.62-1.78,9.99-1.8,14.44,.39s7.8,6.67,8.19,11.61c.34,4.33-1.53,8.62-4.4,11.89s-6.64,5.6-10.54,7.49"/><path d="M178.25,20.96c.09-3.48,2.93-6.07,5.84-7.54,3.65-1.85,8.17-2.12,12.04-.82,3.4,1.14,6.37,3.87,7.64,7.25,1.43,3.79,.48,7.79-1.66,11.1-2.67,4.12-7.05,6.76-11.37,8.87-1.21,.59-1.54,2.32-.9,3.42,.72,1.24,2.2,1.49,3.42,.9,4.9-2.39,9.51-5.48,12.7-9.99s4.45-9.99,2.81-15.11c-1.54-4.8-5.21-8.73-9.83-10.69-5.15-2.18-11.11-1.97-16.23,.22s-9.32,6.67-9.46,12.38c-.08,3.22,4.92,3.22,5,0h0Z"/></g><g><path class="cls-1" d="M44.93,202.77c-4.6,20.94,7.66,49.02,16.34,45.84s3.06-21.84,3.06-21.84c-4.09-9.19,1.53-7.66,1.53-7.66,62.81,6.64,91.4,2.04,91.4,2.04v16.34c2.04,14.29,7.66,10.73,7.66,10.72,.34-.2,.94-.14,1.34-.36,1.78-.99,2.6-3.38,3.19-5.19,.66-2.06,1.14-4.22,2.33-6.06,2.17-3.35,2.39-7.66,2.86-11.53s.75-7.65,1.14-11.47c.49-4.72,.95-9.44,1.37-14.17l.02-.24c3.06,0,6.13-4.09,6.13-4.09,3.57,7.15,7.66,7.66,7.66,7.66,9.19-8.17,5.62-49.02,5.62-49.02,61.79-45.45,0-98.04,0-98.04-5.11-21.45-21.45-34.72-21.45-34.72C78.63-20.38,39.31,47.54,39.31,47.54c0,0-35.74,9.19-36.77,53.11s31.66,44.94,31.66,44.94l-7.15,33.19s-2.04,12.26,5.11,15.32,8.17-9.7,8.17-9.7l6.13-19.4"/><path d="M42.52,202.1c-1.91,8.91-1.18,18.3,1.17,27.06,1.06,3.95,2.48,7.84,4.35,11.49,1.44,2.83,3.23,5.68,5.59,7.84,1.95,1.78,4.41,3.16,7.12,2.8,3.27-.44,5.61-2.99,6.78-5.93,2.11-5.31,1.02-11.86-.26-17.25-.49-2.07-1.51-3.98-1.89-6.07-.1-.54-.02-.18-.01-.06-.01-.14-.02-.29-.02-.43,0-.04,.04-.68-.01-.23-.05,.41,.01-.08,.04-.15,.18-.38-.3,.49,.02-.02-.33,.53-.29,.36-.13,.19,.18-.19-.59,.37-.17,.13s-.63,.2-.08,.04c.51-.14-.51-.06-.2,.01,.1,.02,.32,0,.43,0,.56-.05-.39,0-.26-.05,.03,0,1.49,.21,.89,.14,1.55,.19,3.11,.32,4.66,.48,2.9,.29,5.8,.56,8.7,.82,5.32,.47,10.64,.87,15.96,1.21,15.05,.95,30.17,1.43,45.25,.85,3.92-.15,7.84-.37,11.75-.73,1.82-.17,3.76-.25,5.55-.64,.06-.01,.13-.02,.19-.03l-3.16-2.41v11.43c0,1.6-.08,3.23,0,4.83,.17,3.15,1.12,6.73,2.64,9.51,1.77,3.26,5.04,5.1,8.58,3.56,.06-.03,.12-.08,.19-.1-.5,.15-.21,.11,.07,.07,.61-.08,1.21-.37,1.71-.72,1.78-1.24,2.75-3.15,3.48-5.14s1.08-4.13,2.07-5.98c1.1-2.07,2.12-3.99,2.64-6.31,1.14-5.15,1.38-10.59,1.87-15.83,.54-5.76,1.16-11.51,1.67-17.28l-2.5,2.5c3.48-.15,6.28-2.67,8.29-5.32h-4.32c1.55,3.03,3.67,6.03,6.66,7.79,1.78,1.05,3.72,1.68,5.36-.03,2.97-3.1,4.18-7.7,4.97-11.8,1.95-10.14,1.87-20.72,1.42-31-.11-2.53-.24-5.06-.46-7.58l-1.24,2.16c9.96-7.36,19.19-16.42,24.32-27.87,3.88-8.65,5.13-17.97,3.8-27.35-2.13-14.95-10.59-28.57-20.52-39.65-2.23-2.48-4.55-4.94-7.09-7.11l.64,1.1c-2.42-10-7.37-19.18-13.8-27.16-1.94-2.41-4.03-4.72-6.28-6.86-.56-.53-1.12-1.06-1.71-1.55-1.1-.94-2.51-1.37-3.84-1.92-18.96-7.84-39.46-13.01-60.09-12.37-14.59,.46-29.01,3.92-42,10.62-9.18,4.73-17.61,11.06-24.72,18.55-2.37,2.5-4.59,5.14-6.65,7.9-.91,1.22-1.94,2.49-2.64,3.86-.03,.06-.07,.12-.1,.17l1.49-1.15c-4.45,1.15-8.79,3.44-12.64,5.9-8.85,5.68-16.04,13.82-20.35,23.43-3.03,6.75-4.71,13.93-5.35,21.3-.67,7.75-.32,15.77,1.6,23.32,2.54,10,8.34,19.06,17.38,24.31,2.86,1.66,5.98,2.94,9.19,3.76,1.75,.45,3.67,.9,5.49,.91,.08,0,.16,.01,.24,.01l-2.41-3.16-3.47,16.11c-1.22,5.67-2.62,11.34-3.67,17.05-1.22,6.63,0,16.97,7.89,18.78,4.73,1.09,7.74-2.63,9.12-6.67,.47-1.37,.77-2.79,.97-4.22,.07-.5,.17-1.02,.19-1.53-.02,.46-.18,.84,.04,.22,2.16-6.06,3.89-12.31,5.82-18.44l.18-.56c.97-3.08-3.85-4.39-4.82-1.33l-5.37,17.01c-.25,.78-.55,1.56-.75,2.36-.07,.31-.09,.62-.12,.93-.02,.17-.04,.34-.06,.52,.1-.97,0,0-.05,.23-.25,1.48-.61,2.97-1.19,4.36,.23-.55-.04,.08-.08,.16-.09,.18-.18,.36-.28,.54s-.75,1.1-.38,.65c-.2,.25-.42,.47-.65,.69-.43,.41,.44-.23-.08,.05-.16,.09-.83,.32-.22,.14-.18,.05-.35,.1-.54,.14,.64-.13,.05,0-.11-.03-.68-.09,.53,.15-.18-.01-.23-.05-.46-.11-.68-.19-.65-.22-1.25-.67-1.86-1.3-.38-.4-.28-.29-.64-.88-.21-.35-.41-.72-.57-1.1,.19,.44-.11-.32-.11-.33-.08-.24-.16-.48-.23-.72-.16-.56-.28-1.13-.39-1.7,0-.04-.12-.84-.05-.31-.03-.2-.05-.4-.06-.6-.04-.43-.07-.85-.09-1.28-.04-.88-.02-1.77,.03-2.65,.03-.52,.09-1.04,.13-1.56,.07-.73-.15,.63,0,0,1.25-5.09,2.21-10.26,3.31-15.37l3.84-17.82c.35-1.62-.72-3.11-2.41-3.16-.22,0-.43-.03-.65-.05-.26-.02-.52-.06-.78-.09-.23-.02,.79,.12,.14,.02-.19-.03-.37-.06-.56-.09-2.1-.36-4.17-.93-6.16-1.69-.29-.11-.58-.23-.87-.34-.42-.17,.47,.21,.05,.02-.18-.08-.37-.16-.55-.25-.67-.3-1.34-.63-1.99-.98-1.4-.75-2.73-1.6-4.01-2.54-.07-.05-.52-.39-.26-.19s-.26-.2-.33-.27c-.34-.28-.68-.56-1.02-.86-.69-.61-1.36-1.25-2-1.91-.67-.7-1.31-1.44-1.92-2.2-.1-.12-.39-.51-.14-.18-.15-.2-.31-.41-.46-.62-.31-.42-.6-.86-.89-1.29-2.68-4.08-4.2-8.05-5.32-12.85-1.45-6.24-1.71-12.74-1.31-19.14,.68-11,3.94-21.51,10.49-30.34,.5-.67,1.11-1.44,1.88-2.34,.68-.79,1.38-1.56,2.11-2.31,1.38-1.43,2.85-2.77,4.39-4.03,.18-.15,.37-.3,.56-.45,.07-.06,.53-.42,.3-.24s.3-.23,.38-.29c.21-.16,.42-.31,.63-.47,.69-.5,1.38-.98,2.09-1.45,1.3-.86,2.64-1.66,4.01-2.4,1.16-.62,2.34-1.21,3.54-1.74,.24-.11,.48-.21,.72-.31,.16-.07-.6,.24-.18,.08,.13-.05,.27-.11,.4-.16,.42-.17,.84-.33,1.26-.48,1.27-.47,2.9-.69,3.71-1.87,.97-1.43,1.89-2.89,2.93-4.28,.12-.16,.24-.32,.36-.47,.29-.39-.2,.25-.13,.17,.08-.1,.16-.21,.24-.31,.29-.37,.58-.73,.87-1.09,.69-.84,1.39-1.68,2.11-2.49,1.7-1.93,3.48-3.78,5.34-5.55,2.22-2.11,4.54-4.11,6.96-6,.35-.27-.37,.28,.14-.1,.15-.11,.29-.22,.43-.33,.37-.28,.74-.55,1.11-.82,.68-.5,1.38-.99,2.07-1.47,1.48-1.02,3-2,4.54-2.93,3.34-2.02,6.81-3.82,10.38-5.39,.24-.11,.48-.21,.72-.31,.1-.04,.21-.09,.31-.13-.09,.04-.42,.18,.03-.01,.49-.2,.99-.4,1.48-.6,1.01-.4,2.03-.78,3.05-1.14,2.08-.74,4.2-1.4,6.33-1.99,9.79-2.7,19.34-3.67,29.57-3.34,12.8,.41,25.44,3.04,37.61,6.97,3.61,1.17,7.18,2.45,10.7,3.84,.87,.34,1.74,.69,2.6,1.04,.4,.17,.81,.33,1.21,.5,.18,.07,.42,.2,.62,.26,.12,.04,.69,.15,.31-.04,.14,.07,.28,.23,.4,.34,2.36,2.03,4.51,4.32,6.53,6.69,3.6,4.22,6.81,9.04,9.36,14.16,1.52,3.06,2.77,6.23,3.73,9.51,.42,1.44,.54,3.17,1.67,4.24,3.24,3.09,6.38,6.23,9.26,9.68,.56,.67,1.12,1.36,1.66,2.05,.15,.19,.29,.37,.44,.56,.35,.44-.09-.12,.18,.23,.3,.39,.59,.78,.89,1.17,1.21,1.63,2.37,3.3,3.47,5,2.4,3.71,4.53,7.6,6.26,11.66,3.52,8.25,5.33,18.19,3.76,27.17-2.12,12.17-9.44,22.4-18.52,30.59-1.52,1.37-3.08,2.68-4.69,3.95-1.32,1.04-3.65,2.14-3.68,4.03,0,.53,.09,1.07,.12,1.6,.23,3.2,.38,6.41,.47,9.62,.13,4.7,.13,9.41-.09,14.12s-.58,9.03-1.64,13.64c-.22,.98-.48,1.95-.78,2.9-.14,.43-.28,.85-.44,1.27-.08,.22-.17,.43-.25,.65,.16-.4,.04-.09-.05,.11-.32,.7-.68,1.39-1.1,2.04-.11,.16-.22,.32-.33,.47-.02,.03,.29-.31-.05,.06-.24,.26-.47,.52-.74,.75l2.43-.64c-.22-.03-.43-.12-.64-.17-.5-.12,.47,.28-.21-.1-.33-.18-.64-.37-.96-.57-.14-.09-.39-.28-.13-.08-.2-.15-.39-.32-.58-.49-.44-.4-.85-.82-1.23-1.27-.98-1.15-1.74-2.49-2.42-3.83-.94-1.85-3.28-1.37-4.32,0,.68-.9,.01-.04-.17,.17-.36,.41-.74,.8-1.14,1.17-.44,.4-.8,.7-1.33,1.02-.5,.3-.9,.47-1.33,.49-1.44,.06-2.38,1.1-2.5,2.5-.82,9.24-1.71,18.49-2.74,27.7-.22,1.92-.47,3.83-1.04,5.68-.62,2.02-1.92,3.71-2.67,5.69-.66,1.76-1.03,3.62-1.75,5.36-.24,.57-.56,1.33-1.04,1.73-.45,.38-1.19,.43-1.77,.7s.51-.09,.12-.04c-.12,.02-.34,.07-.45,.12-.28,.14,.52,.02,.32-.04-.1-.03-.24,.04-.34,0-.51-.16,.5,.19,.2,.04-.07-.03-.28-.09-.35-.09-.26,.01-.46-.42,.13,.07-.1-.08-.31-.2-.43-.24-.41-.14-.02-.02,.01,.02-.12-.13-.26-.25-.39-.37-.06-.06-.11-.13-.17-.19-.23-.24,.26,.38,.06,.09-.15-.22-.3-.43-.44-.66-.69-1.16-.92-1.88-1.31-3.26-.23-.84-.43-1.68-.59-2.53-.09-.49-.18-.98-.26-1.48-.11-.68,0,.2-.01-.09-.03-1.38,0-2.77,0-4.16v-12.1c0-1.77-1.59-2.66-3.16-2.41-.07,.01-.14,.02-.21,.03-.08,.01-.15,.02-.23,.03-.59,.09,.61-.08,.26-.03-.82,.1-1.64,.2-2.47,.29-3.27,.34-6.55,.57-9.83,.74-13.37,.69-26.79,.46-40.16-.19-10.28-.5-20.55-1.28-30.8-2.26-1.45-.14-2.89-.28-4.34-.43-.65-.07-1.31-.15-1.97-.2-1-.08-.49-.04-.34-.02-.02,0-.03,0-.05-.01-.78-.09-1.4-.2-2.18-.1-3.18,.44-4.22,3.42-3.81,6.28,.12,.84,.33,1.65,.61,2.46,.2,.57,.42,1.13,.65,1.69,0,.01,.37,1,.18,.42,0,.02,.01,.04,.02,.05,.16,.5,.28,1.01,.4,1.51,.25,1.03,.48,2.07,.67,3.11,.3,1.63,.36,2.03,.5,3.65,.13,1.51,.17,3.03,.05,4.54-.01,.15-.12,1.11-.05,.65-.04,.31-.1,.62-.16,.92-.07,.34-.15,.67-.24,1-.05,.18-.11,.36-.17,.53-.02,.06-.23,.62-.11,.32,.07-.18-.25,.51-.33,.67-.14,.24-.29,.48-.44,.7,.31-.44-.3,.32-.41,.43-.1,.1-.2,.19-.3,.27,.33-.28,0,0-.16,.1-.24,.14-.49,.29-.75,.4,.46-.19-.2,.02-.31,.06-.48,.18,.5,.06-.13,.01-.31-.02-.89-.2-.22,.02-.19-.06-.4-.1-.6-.15-.13-.03-.25-.09-.38-.13-.31-.11,.44,.22,.14,.05-.23-.13-.46-.24-.68-.37-.15-.09-.89-.63-.4-.25-.48-.38-.93-.8-1.36-1.24-.21-.21-.4-.43-.6-.66-.11-.12-.73-.89-.5-.59-2.04-2.64-3.6-5.78-4.79-8.82-3.05-7.82-4.58-16.38-4.07-24.78,.12-2.03,.39-4.02,.82-6.01,.67-3.14-4.15-4.48-4.82-1.33h0Z"/></g><path d="M105.19,58.66c2.62,0,5.12-2.3,5-5s-2.2-5-5-5c-2.62,0-5.12,2.3-5,5s2.2,5,5,5h0Z"/><path d="M139.91,58.15c2.62,0,5.12-2.3,5-5s-2.2-5-5-5c-2.62,0-5.12,2.3-5,5s2.2,5,5,5h0Z"/><path d="M95.78,86.42c4.26,2.87,7.21,7.56,7.98,12.64s-.88,10.76-4.3,14.73c-.88,1.02-1,2.53,0,3.54,.9,.9,2.65,1.03,3.54,0,4.58-5.31,6.68-12.27,5.65-19.22-.97-6.53-4.9-12.34-10.34-16-2.68-1.8-5.18,2.53-2.52,4.32h0Z"/><path d="M106.75,100.99c3.07,.23,6.35,.35,9.3-.71,3.59-1.29,5.7-4.02,6.95-7.54s1.89-7.84-.02-11.34c-1.72-3.15-5.11-4.9-8.63-4.28l1.33,4.82c2.06-.72,4.18-1.22,6.36-1.35,1.2-.07,2.4-.05,3.59,.05,.76,.06,1.09,.47,.53-.57-.17-.81-.37-.93-.61-.35-.15,.2-.3,.4-.45,.6-2.36,3.07-5.13,6.12-5.36,10.19s2.58,7.65,6.14,9.34c4.29,2.03,9,1.43,13.53,.78,1.34-.19,2.07-1.89,1.75-3.08-.39-1.44-1.73-1.94-3.08-1.75-3.65,.52-8.15,1.21-11.31-1.23-1.16-.9-2.08-2.2-2.04-3.71,.04-1.64,.97-3.08,1.88-4.39,1.1-1.56,2.51-2.95,3.48-4.59,1.39-2.34,.5-5.2-2.24-5.95-2.1-.57-4.57-.49-6.72-.29-2.32,.22-4.59,.69-6.79,1.46-3.06,1.07-1.83,5.38,1.33,4.82,1.68-.29,3.01,1.64,3.36,3.02,.59,2.38-.24,5.28-1.25,7.44-2,4.26-7.02,3.89-11.03,3.59-1.35-.1-2.5,1.22-2.5,2.5,0,1.44,1.15,2.4,2.5,2.5h0Z"/><path d="M147.55,79.72c-4.68,5.65-8.2,12.21-10.09,19.32-.98,3.69-1.56,7.76-.4,11.49,.98,3.15,3.13,6.11,6.23,7.42,1.24,.53,2.68,.37,3.42-.9,.61-1.05,.35-2.89-.9-3.42-5.76-2.43-4.61-9.69-3.19-14.51,1.71-5.78,4.6-11.23,8.45-15.87,.86-1.04,1.02-2.52,0-3.54-.89-.89-2.67-1.04-3.54,0h0Z"/><path d="M180.78,163.96c.05,11.34,.96,22.65,2.65,33.86,.2,1.34,1.88,2.07,3.08,1.75,1.43-.39,1.95-1.73,1.75-3.08-1.62-10.77-2.42-21.65-2.47-32.53-.01-3.22-5.01-3.22-5,0h0Z"/><path d="M121.06,83.12c.91,.15,1.81,.4,2.67,.72,.33,.1,.66,.12,1,.04,.33-.02,.64-.11,.93-.3,.29-.16,.53-.37,.7-.64,.22-.24,.37-.52,.45-.85l.09-.66c0-.45-.12-.87-.34-1.26l-.39-.51c-.31-.31-.68-.52-1.1-.64-.87-.33-1.76-.57-2.67-.72-.33-.1-.66-.12-1-.04-.33,.02-.64,.11-.93,.3-.29,.16-.53,.37-.7,.64-.22,.24-.37,.52-.45,.85l-.09,.66c0,.45,.12,.87,.34,1.26l.39,.51c.31,.31,.68,.52,1.1,.64h0Z"/><path d="M123.3,91.99c.09-1.39,.06-2.78-.16-4.16s-.82-2.52-1.39-3.71-1.27-2.25-2.14-3.23c-.37-.41-.77-.78-1.2-1.13-.22-.18-.44-.37-.67-.55-.21-.23-.2-.21,.03,.05,.1,.18,.16,.37,.17,.57-.02-1.11-.77-2.11-1.84-2.41l-.38-.11c-1.78-.51-3.66,1.25-3.08,3.08,.13,.41,.3,.84,.54,1.2,.71,1.1,2.25,1.65,3.42,.9,1.1-.71,1.66-2.25,.9-3.42-.3-.46,.13,.52-.03,0l-3.08,3.08,.38,.11-1.84-2.41c.02,1,.37,1.85,1,2.61,.36,.44,.82,.75,1.24,1.12s.79,.76,1.15,1.18c-.38-.44,.16,.23,.22,.32,.16,.24,.31,.5,.45,.75,.3,.54,.55,1.11,.8,1.67,.06,.13,.12,.26,.18,.4-.11-.26-.11-.26,0,0,.09,.28,.16,.56,.25,.83,.05,.29,.06,.29,.01-.01,.02,.15,.03,.29,.04,.44,.02,.31,.04,.62,.05,.93,.02,.64,0,1.27-.04,1.91-.08,1.31,1.21,2.56,2.5,2.5,1.42-.06,2.41-1.1,2.5-2.5h0Z"/></svg>